# xmcd CD database file
#
# Track frame offsets:
#	150
#	47271
#	125387
#	150147
#	193225
#	236491
#
# Disc length: 3515 seconds
#
# Revision: 0
# Processed by: cddbd v1.5.1PL2 Copyright (c) Steve Scherf et al.
# Submitted via: CDex 1.51
#
DISCID=3d0db906
DTITLE=Poing - Planet Poing
DYEAR=2005
DGENRE=Jazz
TTITLE0=Sushita 009
TTITLE1=Rondo Bastard Overture Explosion
TTITLE2=No Title Tango And Milonga
TTITLE3=435271
TTITLE4=Tension III: Disembarrass
TTITLE5=Kronologi
EXTD=YEAR: 2005
EXTT0=
EXTT1=
EXTT2=
EXTT3=
EXTT4=
EXTT5=
PLAYORDER=
